<svg width="135" height="144" viewBox="0 0 135 144" fill="none" xmlns="http://www.w3.org/2000/svg">
<path d="M95.53 43.62H80.0901L69.1699 30.13L61.53 20.6599L9.76001 83.34L2 73.9399L61.4099 2L95.53 43.62Z" stroke="#5577E7" stroke-width="3.78" stroke-linecap="round" stroke-linejoin="round"/>
<path d="M103.33 34.01L95.53 43.62L61.4099 2H76.8899L103.33 34.01Z" fill="#ADC0FF" stroke="#5577E7" stroke-width="3.78" stroke-linecap="round" stroke-linejoin="round"/>
<path d="M100.67 72L91.24 83.36H9.78003L9.76001 83.34L61.53 20.6599L69.1699 30.13L34.4299 72H100.67Z" fill="#ADC0FF" stroke="#5577E7" stroke-width="3.78" stroke-linecap="round" stroke-linejoin="round"/>
<path d="M39.52 100.38H54.97L65.9199 113.86L73.5601 123.34L125.33 60.6499L133.09 70.0599L73.6799 142L39.52 100.38Z" fill="#ADC0FF" stroke="#5577E7" stroke-width="3.78" stroke-linecap="round" stroke-linejoin="round"/>
<path d="M31.72 109.99L39.52 100.38L73.6799 142H58.2L31.72 109.99Z" stroke="#5577E7" stroke-width="3.78" stroke-linecap="round" stroke-linejoin="round"/>
<path d="M34.4299 72L43.8501 60.64H125.32L125.33 60.6499L73.5601 123.34L65.9199 113.86L100.67 72H34.4299Z" stroke="#5577E7" stroke-width="3.78" stroke-linecap="round" stroke-linejoin="round"/>
</svg>
